<?xml version="1.0" encoding="UTF-8" standalone="no"?>
<!DOCTYPE svg PUBLIC "-//W3C//DTD SVG 1.1//EN"
 "http://www.w3.org/Graphics/SVG/1.1/DTD/svg11.dtd">
<!-- Generated by graphviz version 9.0.0 (20230911.1827)
 -->
<!-- Title: G Pages: 1 -->
<svg width="425pt" height="476pt"
 viewBox="0.00 0.00 424.99 476.00" xmlns="http://www.w3.org/2000/svg" xmlns:xlink="http://www.w3.org/1999/xlink">
<g id="graph0" class="graph" transform="scale(1 1) rotate(0) translate(4 472)">
<title>G</title>
<polygon fill="white" stroke="none" points="-4,4 -4,-472 420.99,-472 420.99,4 -4,4"/>
<!-- Start -->
<g id="node1" class="node">
<title>Start</title>
<ellipse fill="none" stroke="black" cx="250.49" cy="-450" rx="28.11" ry="18"/>
<text text-anchor="middle" x="250.49" y="-444.57" font-family="Times New Roman,serif" font-size="14.00">Start</text>
</g>
<!-- Create Game -->
<g id="node2" class="node">
<title>Create Game</title>
<ellipse fill="none" stroke="black" cx="77.49" cy="-378" rx="59.05" ry="18"/>
<text text-anchor="middle" x="77.49" y="-372.57" font-family="Times New Roman,serif" font-size="14.00">Create Game</text>
</g>
<!-- Start&#45;&gt;Create Game -->
<g id="edge1" class="edge">
<title>Start&#45;&gt;Create Game</title>
<path fill="none" stroke="black" d="M227.16,-439.56C200.45,-428.75 156.06,-410.79 122.54,-397.23"/>
<polygon fill="black" stroke="black" points="124.07,-394.07 113.48,-393.56 121.44,-400.56 124.07,-394.07"/>
</g>
<!-- Load Game -->
<g id="node3" class="node">
<title>Load Game</title>
<ellipse fill="none" stroke="black" cx="209.49" cy="-378" rx="54.56" ry="18"/>
<text text-anchor="middle" x="209.49" y="-372.57" font-family="Times New Roman,serif" font-size="14.00">Load Game</text>
</g>
<!-- Start&#45;&gt;Load Game -->
<g id="edge2" class="edge">
<title>Start&#45;&gt;Load Game</title>
<path fill="none" stroke="black" d="M240.99,-432.76C236.31,-424.78 230.55,-414.95 225.24,-405.89"/>
<polygon fill="black" stroke="black" points="228.36,-404.29 220.29,-397.43 222.32,-407.83 228.36,-404.29"/>
</g>
<!-- Game State -->
<g id="node4" class="node">
<title>Game State</title>
<ellipse fill="none" stroke="black" cx="147.49" cy="-306" rx="53.56" ry="18"/>
<text text-anchor="middle" x="147.49" y="-300.57" font-family="Times New Roman,serif" font-size="14.00">Game State</text>
</g>
<!-- Create Game&#45;&gt;Game State -->
<g id="edge3" class="edge">
<title>Create Game&#45;&gt;Game State</title>
<path fill="none" stroke="black" d="M94.08,-360.41C102.71,-351.78 113.43,-341.06 123,-331.5"/>
<polygon fill="black" stroke="black" points="125.36,-334.09 129.95,-324.54 120.41,-329.14 125.36,-334.09"/>
</g>
<!-- Load Game&#45;&gt;Game State -->
<g id="edge4" class="edge">
<title>Load Game&#45;&gt;Game State</title>
<path fill="none" stroke="black" d="M194.8,-360.41C187.31,-351.95 178.05,-341.49 169.71,-332.08"/>
<polygon fill="black" stroke="black" points="172.34,-329.77 163.09,-324.6 167.1,-334.41 172.34,-329.77"/>
</g>
<!-- Something Happens -->
<g id="node5" class="node">
<title>Something Happens</title>
<ellipse fill="none" stroke="black" cx="85.49" cy="-234" rx="85.49" ry="18"/>
<text text-anchor="middle" x="85.49" y="-228.57" font-family="Times New Roman,serif" font-size="14.00">Something Happens</text>
</g>
<!-- Game State&#45;&gt;Something Happens -->
<g id="edge5" class="edge">
<title>Game State&#45;&gt;Something Happens</title>
<path fill="none" stroke="black" d="M132.8,-288.41C125.42,-280.08 116.31,-269.8 108.07,-260.49"/>
<polygon fill="black" stroke="black" points="110.77,-258.25 101.52,-253.09 105.53,-262.9 110.77,-258.25"/>
</g>
<!-- Update -->
<g id="node6" class="node">
<title>Update</title>
<ellipse fill="none" stroke="black" cx="226.49" cy="-234" rx="37.59" ry="18"/>
<text text-anchor="middle" x="226.49" y="-228.57" font-family="Times New Roman,serif" font-size="14.00">Update</text>
</g>
<!-- Something Happens&#45;&gt;Update -->
<g id="edge6" class="edge">
<title>Something Happens&#45;&gt;Update</title>
<path fill="none" stroke="black" d="M171.42,-234C173.39,-234 175.36,-234 177.33,-234"/>
<polygon fill="black" stroke="black" points="177.11,-237.5 187.11,-234 177.11,-230.5 177.11,-237.5"/>
</g>
<!-- Quit Game -->
<g id="node7" class="node">
<title>Quit Game</title>
<ellipse fill="none" stroke="black" cx="172.49" cy="-162" rx="51.06" ry="18"/>
<text text-anchor="middle" x="172.49" y="-156.57" font-family="Times New Roman,serif" font-size="14.00">Quit Game</text>
</g>
<!-- Something Happens&#45;&gt;Quit Game -->
<g id="edge7" class="edge">
<title>Something Happens&#45;&gt;Quit Game</title>
<path fill="none" stroke="black" d="M106.11,-216.41C117.43,-207.3 131.65,-195.87 144.01,-185.92"/>
<polygon fill="black" stroke="black" points="145.85,-188.93 151.44,-179.94 141.46,-183.48 145.85,-188.93"/>
</g>
<!-- Update&#45;&gt;Game State -->
<g id="edge8" class="edge">
<title>Update&#45;&gt;Game State</title>
<path fill="none" stroke="black" d="M209.08,-250.43C198.86,-259.48 185.74,-271.12 174.23,-281.31"/>
<polygon fill="black" stroke="black" points="172.11,-278.51 166.95,-287.76 176.76,-283.75 172.11,-278.51"/>
</g>
<!-- Save Game -->
<g id="node8" class="node">
<title>Save Game</title>
<ellipse fill="none" stroke="black" cx="172.49" cy="-90" rx="53.06" ry="18"/>
<text text-anchor="middle" x="172.49" y="-84.58" font-family="Times New Roman,serif" font-size="14.00">Save Game</text>
</g>
<!-- Quit Game&#45;&gt;Save Game -->
<g id="edge9" class="edge">
<title>Quit Game&#45;&gt;Save Game</title>
<path fill="none" stroke="black" d="M172.49,-143.7C172.49,-136.41 172.49,-127.73 172.49,-119.54"/>
<polygon fill="black" stroke="black" points="175.99,-119.62 172.49,-109.62 168.99,-119.62 175.99,-119.62"/>
</g>
<!-- Quit Without Saving -->
<g id="node9" class="node">
<title>Quit Without Saving</title>
<ellipse fill="none" stroke="black" cx="330.49" cy="-90" rx="86.49" ry="18"/>
<text text-anchor="middle" x="330.49" y="-84.58" font-family="Times New Roman,serif" font-size="14.00">Quit Without Saving</text>
</g>
<!-- Quit Game&#45;&gt;Quit Without Saving -->
<g id="edge10" class="edge">
<title>Quit Game&#45;&gt;Quit Without Saving</title>
<path fill="none" stroke="black" d="M203.33,-147.34C226.38,-137.13 258.27,-123 284.35,-111.44"/>
<polygon fill="black" stroke="black" points="285.65,-114.69 293.38,-107.44 282.82,-108.29 285.65,-114.69"/>
</g>
<!-- Save Game&#45;&gt;Start -->
<g id="edge11" class="edge">
<title>Save Game&#45;&gt;Start</title>
<path fill="none" stroke="black" d="M198.53,-106.13C233.83,-128.82 292.49,-175.22 292.49,-233 292.49,-307 292.49,-307 292.49,-307 292.49,-348.53 275.77,-394.2 263.43,-422.24"/>
<polygon fill="black" stroke="black" points="260.38,-420.49 259.42,-431.04 266.75,-423.39 260.38,-420.49"/>
</g>
<!-- Exit Program -->
<g id="node10" class="node">
<title>Exit Program</title>
<ellipse fill="none" stroke="black" cx="251.49" cy="-18" rx="59.55" ry="18"/>
<text text-anchor="middle" x="251.49" y="-12.57" font-family="Times New Roman,serif" font-size="14.00">Exit Program</text>
</g>
<!-- Save Game&#45;&gt;Exit Program -->
<g id="edge12" class="edge">
<title>Save Game&#45;&gt;Exit Program</title>
<path fill="none" stroke="black" d="M190.82,-72.76C200.82,-63.91 213.38,-52.77 224.49,-42.93"/>
<polygon fill="black" stroke="black" points="226.7,-45.65 231.86,-36.39 222.06,-40.41 226.7,-45.65"/>
</g>
<!-- Quit Without Saving&#45;&gt;Start -->
<g id="edge13" class="edge">
<title>Quit Without Saving&#45;&gt;Start</title>
<path fill="none" stroke="black" d="M330.49,-108.49C330.49,-135.29 330.49,-188.13 330.49,-233 330.49,-307 330.49,-307 330.49,-307 330.49,-354.03 296.77,-399.85 273.12,-426.21"/>
<polygon fill="black" stroke="black" points="270.81,-423.55 266.57,-433.26 275.94,-428.31 270.81,-423.55"/>
</g>
<!-- Quit Without Saving&#45;&gt;Exit Program -->
<g id="edge14" class="edge">
<title>Quit Without Saving&#45;&gt;Exit Program</title>
<path fill="none" stroke="black" d="M311.37,-72.05C301.5,-63.31 289.29,-52.49 278.47,-42.9"/>
<polygon fill="black" stroke="black" points="281.11,-40.56 271.3,-36.55 276.47,-45.8 281.11,-40.56"/>
</g>
</g>
</svg>
