<?xml version="1.0" encoding="UTF-8" standalone="no"?>
<!DOCTYPE svg PUBLIC "-//W3C//DTD SVG 1.1//EN"
 "http://www.w3.org/Graphics/SVG/1.1/DTD/svg11.dtd">
<!-- Generated by graphviz version 9.0.0 (20230911.1827)
 -->
<!-- Title: G Pages: 1 -->
<svg width="392pt" height="476pt"
 viewBox="0.00 0.00 391.55 476.00" xmlns="http://www.w3.org/2000/svg" xmlns:xlink="http://www.w3.org/1999/xlink">
<g id="graph0" class="graph" transform="scale(1 1) rotate(0) translate(4 472)">
<title>G</title>
<polygon fill="white" stroke="none" points="-4,4 -4,-472 387.55,-472 387.55,4 -4,4"/>
<!-- Start -->
<g id="node1" class="node">
<title>Start</title>
<ellipse fill="none" stroke="black" cx="245.49" cy="-450" rx="28.11" ry="18"/>
<text text-anchor="middle" x="245.49" y="-444.57" font-family="Times New Roman,serif" font-size="14.00">Start</text>
</g>
<!-- Create Game -->
<g id="node2" class="node">
<title>Create Game</title>
<ellipse fill="none" stroke="black" cx="179.49" cy="-378" rx="59.05" ry="18"/>
<text text-anchor="middle" x="179.49" y="-372.57" font-family="Times New Roman,serif" font-size="14.00">Create Game</text>
</g>
<!-- Start&#45;&gt;Create Game -->
<g id="edge1" class="edge">
<title>Start&#45;&gt;Create Game</title>
<path fill="none" stroke="black" d="M231.5,-434.15C223.22,-425.38 212.52,-414.03 202.99,-403.91"/>
<polygon fill="black" stroke="black" points="205.77,-401.77 196.36,-396.89 200.68,-406.57 205.77,-401.77"/>
</g>
<!-- Load Game -->
<g id="node3" class="node">
<title>Load Game</title>
<ellipse fill="none" stroke="black" cx="311.49" cy="-378" rx="54.56" ry="18"/>
<text text-anchor="middle" x="311.49" y="-372.57" font-family="Times New Roman,serif" font-size="14.00">Load Game</text>
</g>
<!-- Start&#45;&gt;Load Game -->
<g id="edge2" class="edge">
<title>Start&#45;&gt;Load Game</title>
<path fill="none" stroke="black" d="M259.49,-434.15C267.89,-425.25 278.77,-413.71 288.41,-403.48"/>
<polygon fill="black" stroke="black" points="290.78,-406.07 295.1,-396.39 285.69,-401.27 290.78,-406.07"/>
</g>
<!-- Game State -->
<g id="node4" class="node">
<title>Game State</title>
<ellipse fill="none" stroke="black" cx="185.49" cy="-306" rx="53.56" ry="18"/>
<text text-anchor="middle" x="185.49" y="-300.57" font-family="Times New Roman,serif" font-size="14.00">Game State</text>
</g>
<!-- Create Game&#45;&gt;Game State -->
<g id="edge3" class="edge">
<title>Create Game&#45;&gt;Game State</title>
<path fill="none" stroke="black" d="M180.98,-359.7C181.6,-352.41 182.35,-343.73 183.05,-335.54"/>
<polygon fill="black" stroke="black" points="186.53,-335.87 183.9,-325.61 179.56,-335.28 186.53,-335.87"/>
</g>
<!-- Load Game&#45;&gt;Game State -->
<g id="edge4" class="edge">
<title>Load Game&#45;&gt;Game State</title>
<path fill="none" stroke="black" d="M284.46,-361.98C266.36,-351.93 242.3,-338.56 222.43,-327.52"/>
<polygon fill="black" stroke="black" points="224.24,-324.52 213.8,-322.73 220.84,-330.64 224.24,-324.52"/>
</g>
<!-- Something Happens -->
<g id="node5" class="node">
<title>Something Happens</title>
<ellipse fill="none" stroke="black" cx="85.49" cy="-234" rx="85.49" ry="18"/>
<text text-anchor="middle" x="85.49" y="-228.57" font-family="Times New Roman,serif" font-size="14.00">Something Happens</text>
</g>
<!-- Game State&#45;&gt;Something Happens -->
<g id="edge5" class="edge">
<title>Game State&#45;&gt;Something Happens</title>
<path fill="none" stroke="black" d="M163.3,-289.46C150.18,-280.28 133.31,-268.47 118.64,-258.2"/>
<polygon fill="black" stroke="black" points="120.81,-255.45 110.61,-252.58 116.8,-261.18 120.81,-255.45"/>
</g>
<!-- Update -->
<g id="node6" class="node">
<title>Update</title>
<ellipse fill="none" stroke="black" cx="226.49" cy="-234" rx="37.59" ry="18"/>
<text text-anchor="middle" x="226.49" y="-228.57" font-family="Times New Roman,serif" font-size="14.00">Update</text>
</g>
<!-- Something Happens&#45;&gt;Update -->
<g id="edge6" class="edge">
<title>Something Happens&#45;&gt;Update</title>
<path fill="none" stroke="black" d="M171.42,-234C173.39,-234 175.36,-234 177.33,-234"/>
<polygon fill="black" stroke="black" points="177.11,-237.5 187.11,-234 177.11,-230.5 177.11,-237.5"/>
</g>
<!-- Quit Game -->
<g id="node7" class="node">
<title>Quit Game</title>
<ellipse fill="none" stroke="black" cx="172.49" cy="-162" rx="51.06" ry="18"/>
<text text-anchor="middle" x="172.49" y="-156.57" font-family="Times New Roman,serif" font-size="14.00">Quit Game</text>
</g>
<!-- Something Happens&#45;&gt;Quit Game -->
<g id="edge7" class="edge">
<title>Something Happens&#45;&gt;Quit Game</title>
<path fill="none" stroke="black" d="M106.11,-216.41C117.43,-207.3 131.65,-195.87 144.01,-185.92"/>
<polygon fill="black" stroke="black" points="145.85,-188.93 151.44,-179.94 141.46,-183.48 145.85,-188.93"/>
</g>
<!-- Update&#45;&gt;Game State -->
<g id="edge8" class="edge">
<title>Update&#45;&gt;Game State</title>
<path fill="none" stroke="black" d="M216.66,-251.79C212.04,-259.68 206.42,-269.28 201.23,-278.14"/>
<polygon fill="black" stroke="black" points="198.22,-276.35 196.18,-286.75 204.26,-279.89 198.22,-276.35"/>
</g>
<!-- Save Game -->
<g id="node8" class="node">
<title>Save Game</title>
<ellipse fill="none" stroke="black" cx="330.49" cy="-90" rx="53.06" ry="18"/>
<text text-anchor="middle" x="330.49" y="-84.58" font-family="Times New Roman,serif" font-size="14.00">Save Game</text>
</g>
<!-- Quit Game&#45;&gt;Save Game -->
<g id="edge9" class="edge">
<title>Quit Game&#45;&gt;Save Game</title>
<path fill="none" stroke="black" d="M203.33,-147.34C227.75,-136.52 262.1,-121.3 288.94,-109.41"/>
<polygon fill="black" stroke="black" points="290.08,-112.73 297.81,-105.48 287.25,-106.33 290.08,-112.73"/>
</g>
<!-- Quit Without Saving -->
<g id="node9" class="node">
<title>Quit Without Saving</title>
<ellipse fill="none" stroke="black" cx="172.49" cy="-90" rx="86.49" ry="18"/>
<text text-anchor="middle" x="172.49" y="-84.58" font-family="Times New Roman,serif" font-size="14.00">Quit Without Saving</text>
</g>
<!-- Quit Game&#45;&gt;Quit Without Saving -->
<g id="edge10" class="edge">
<title>Quit Game&#45;&gt;Quit Without Saving</title>
<path fill="none" stroke="black" d="M172.49,-143.7C172.49,-136.41 172.49,-127.73 172.49,-119.54"/>
<polygon fill="black" stroke="black" points="175.99,-119.62 172.49,-109.62 168.99,-119.62 175.99,-119.62"/>
</g>
<!-- Save Game&#45;&gt;Load Game -->
<g id="edge11" class="edge">
<title>Save Game&#45;&gt;Load Game</title>
<path fill="none" stroke="black" d="M329.35,-108.23C326.19,-155.74 317.34,-288.97 313.41,-348.1"/>
<polygon fill="black" stroke="black" points="309.93,-347.82 312.75,-358.03 316.91,-348.28 309.93,-347.82"/>
</g>
<!-- Exit Program -->
<g id="node10" class="node">
<title>Exit Program</title>
<ellipse fill="none" stroke="black" cx="251.49" cy="-18" rx="59.55" ry="18"/>
<text text-anchor="middle" x="251.49" y="-12.57" font-family="Times New Roman,serif" font-size="14.00">Exit Program</text>
</g>
<!-- Save Game&#45;&gt;Exit Program -->
<g id="edge12" class="edge">
<title>Save Game&#45;&gt;Exit Program</title>
<path fill="none" stroke="black" d="M312.17,-72.76C302.17,-63.91 289.6,-52.77 278.5,-42.93"/>
<polygon fill="black" stroke="black" points="280.93,-40.41 271.12,-36.39 276.29,-45.65 280.93,-40.41"/>
</g>
<!-- Quit Without Saving&#45;&gt;Load Game -->
<g id="edge13" class="edge">
<title>Quit Without Saving&#45;&gt;Load Game</title>
<path fill="none" stroke="black" d="M194.94,-107.84C206.98,-117.57 221.54,-130.52 232.49,-144 282.68,-205.75 301.66,-301.01 308.27,-348.31"/>
<polygon fill="black" stroke="black" points="304.78,-348.55 309.54,-358.02 311.72,-347.65 304.78,-348.55"/>
</g>
<!-- Quit Without Saving&#45;&gt;Exit Program -->
<g id="edge14" class="edge">
<title>Quit Without Saving&#45;&gt;Exit Program</title>
<path fill="none" stroke="black" d="M191.62,-72.05C201.49,-63.31 213.7,-52.49 224.52,-42.9"/>
<polygon fill="black" stroke="black" points="226.52,-45.8 231.69,-36.55 221.88,-40.56 226.52,-45.8"/>
</g>
</g>
</svg>
