<?xml version="1.0" encoding="UTF-8" standalone="no"?>
<!DOCTYPE svg PUBLIC "-//W3C//DTD SVG 1.1//EN"
 "http://www.w3.org/Graphics/SVG/1.1/DTD/svg11.dtd">
<!-- Generated by graphviz version 9.0.0 (20230911.1827)
 -->
<!-- Title: G Pages: 1 -->
<svg width="486pt" height="404pt"
 viewBox="0.00 0.00 486.04 404.00" xmlns="http://www.w3.org/2000/svg" xmlns:xlink="http://www.w3.org/1999/xlink">
<g id="graph0" class="graph" transform="scale(1 1) rotate(0) translate(4 400)">
<title>G</title>
<polygon fill="white" stroke="none" points="-4,4 -4,-400 482.04,-400 482.04,4 -4,4"/>
<!-- Start -->
<g id="node1" class="node">
<title>Start</title>
<ellipse fill="none" stroke="black" cx="292.49" cy="-378" rx="28.11" ry="18"/>
<text text-anchor="middle" x="292.49" y="-372.57" font-family="Times New Roman,serif" font-size="14.00">Start</text>
</g>
<!-- Create Game -->
<g id="node2" class="node">
<title>Create Game</title>
<ellipse fill="none" stroke="black" cx="205.49" cy="-306" rx="59.05" ry="18"/>
<text text-anchor="middle" x="205.49" y="-300.57" font-family="Times New Roman,serif" font-size="14.00">Create Game</text>
</g>
<!-- Start&#45;&gt;Create Game -->
<g id="edge1" class="edge">
<title>Start&#45;&gt;Create Game</title>
<path fill="none" stroke="black" d="M275.72,-363.5C263.97,-354.05 247.98,-341.19 234.23,-330.12"/>
<polygon fill="black" stroke="black" points="236.74,-327.65 226.76,-324.11 232.35,-333.1 236.74,-327.65"/>
</g>
<!-- Load Game -->
<g id="node3" class="node">
<title>Load Game</title>
<ellipse fill="none" stroke="black" cx="73.49" cy="-306" rx="54.56" ry="18"/>
<text text-anchor="middle" x="73.49" y="-300.57" font-family="Times New Roman,serif" font-size="14.00">Load Game</text>
</g>
<!-- Start&#45;&gt;Load Game -->
<g id="edge2" class="edge">
<title>Start&#45;&gt;Load Game</title>
<path fill="none" stroke="black" d="M267.8,-369.11C232.66,-357.88 167.51,-337.05 122.39,-322.63"/>
<polygon fill="black" stroke="black" points="123.7,-319.37 113.11,-319.66 121.57,-326.04 123.7,-319.37"/>
</g>
<!-- Exit Program -->
<g id="node4" class="node">
<title>Exit Program</title>
<ellipse fill="none" stroke="black" cx="418.49" cy="-306" rx="59.55" ry="18"/>
<text text-anchor="middle" x="418.49" y="-300.57" font-family="Times New Roman,serif" font-size="14.00">Exit Program</text>
</g>
<!-- Start&#45;&gt;Exit Program -->
<g id="edge3" class="edge">
<title>Start&#45;&gt;Exit Program</title>
<path fill="none" stroke="black" d="M313.3,-365.44C331.73,-355.2 359.07,-340.02 381.26,-327.69"/>
<polygon fill="black" stroke="black" points="382.67,-330.9 389.71,-322.99 379.27,-324.79 382.67,-330.9"/>
</g>
<!-- Game State -->
<g id="node5" class="node">
<title>Game State</title>
<ellipse fill="none" stroke="black" cx="145.49" cy="-234" rx="53.56" ry="18"/>
<text text-anchor="middle" x="145.49" y="-228.57" font-family="Times New Roman,serif" font-size="14.00">Game State</text>
</g>
<!-- Create Game&#45;&gt;Game State -->
<g id="edge4" class="edge">
<title>Create Game&#45;&gt;Game State</title>
<path fill="none" stroke="black" d="M191.28,-288.41C184.03,-279.95 175.06,-269.49 166.99,-260.08"/>
<polygon fill="black" stroke="black" points="169.76,-257.93 160.6,-252.62 164.45,-262.49 169.76,-257.93"/>
</g>
<!-- Load Game&#45;&gt;Game State -->
<g id="edge5" class="edge">
<title>Load Game&#45;&gt;Game State</title>
<path fill="none" stroke="black" d="M90.56,-288.41C99.52,-279.69 110.68,-268.85 120.6,-259.21"/>
<polygon fill="black" stroke="black" points="122.74,-262.01 127.47,-252.53 117.86,-256.99 122.74,-262.01"/>
</g>
<!-- Something Happens -->
<g id="node6" class="node">
<title>Something Happens</title>
<ellipse fill="none" stroke="black" cx="85.49" cy="-162" rx="85.49" ry="18"/>
<text text-anchor="middle" x="85.49" y="-156.57" font-family="Times New Roman,serif" font-size="14.00">Something Happens</text>
</g>
<!-- Game State&#45;&gt;Something Happens -->
<g id="edge6" class="edge">
<title>Game State&#45;&gt;Something Happens</title>
<path fill="none" stroke="black" d="M131.28,-216.41C124.13,-208.08 115.32,-197.8 107.34,-188.49"/>
<polygon fill="black" stroke="black" points="110.18,-186.42 101.01,-181.11 104.86,-190.98 110.18,-186.42"/>
</g>
<!-- Update -->
<g id="node7" class="node">
<title>Update</title>
<ellipse fill="none" stroke="black" cx="226.49" cy="-162" rx="37.59" ry="18"/>
<text text-anchor="middle" x="226.49" y="-156.57" font-family="Times New Roman,serif" font-size="14.00">Update</text>
</g>
<!-- Something Happens&#45;&gt;Update -->
<g id="edge7" class="edge">
<title>Something Happens&#45;&gt;Update</title>
<path fill="none" stroke="black" d="M171.42,-162C173.39,-162 175.36,-162 177.33,-162"/>
<polygon fill="black" stroke="black" points="177.11,-165.5 187.11,-162 177.11,-158.5 177.11,-165.5"/>
</g>
<!-- Quit Game -->
<g id="node8" class="node">
<title>Quit Game</title>
<ellipse fill="none" stroke="black" cx="172.49" cy="-90" rx="51.06" ry="18"/>
<text text-anchor="middle" x="172.49" y="-84.58" font-family="Times New Roman,serif" font-size="14.00">Quit Game</text>
</g>
<!-- Something Happens&#45;&gt;Quit Game -->
<g id="edge8" class="edge">
<title>Something Happens&#45;&gt;Quit Game</title>
<path fill="none" stroke="black" d="M106.11,-144.41C117.43,-135.3 131.65,-123.87 144.01,-113.92"/>
<polygon fill="black" stroke="black" points="145.85,-116.93 151.44,-107.94 141.46,-111.48 145.85,-116.93"/>
</g>
<!-- Update&#45;&gt;Game State -->
<g id="edge9" class="edge">
<title>Update&#45;&gt;Game State</title>
<path fill="none" stroke="black" d="M208.92,-178.19C198.42,-187.26 184.86,-198.98 172.97,-209.26"/>
<polygon fill="black" stroke="black" points="170.7,-206.59 165.43,-215.77 175.28,-211.88 170.7,-206.59"/>
</g>
<!-- Save Game -->
<g id="node9" class="node">
<title>Save Game</title>
<ellipse fill="none" stroke="black" cx="172.49" cy="-18" rx="53.06" ry="18"/>
<text text-anchor="middle" x="172.49" y="-12.57" font-family="Times New Roman,serif" font-size="14.00">Save Game</text>
</g>
<!-- Quit Game&#45;&gt;Save Game -->
<g id="edge10" class="edge">
<title>Quit Game&#45;&gt;Save Game</title>
<path fill="none" stroke="black" d="M172.49,-71.7C172.49,-64.41 172.49,-55.73 172.49,-47.54"/>
<polygon fill="black" stroke="black" points="175.99,-47.62 172.49,-37.62 168.99,-47.62 175.99,-47.62"/>
</g>
<!-- Quit Without Saving -->
<g id="node10" class="node">
<title>Quit Without Saving</title>
<ellipse fill="none" stroke="black" cx="330.49" cy="-18" rx="86.49" ry="18"/>
<text text-anchor="middle" x="330.49" y="-12.57" font-family="Times New Roman,serif" font-size="14.00">Quit Without Saving</text>
</g>
<!-- Quit Game&#45;&gt;Quit Without Saving -->
<g id="edge11" class="edge">
<title>Quit Game&#45;&gt;Quit Without Saving</title>
<path fill="none" stroke="black" d="M203.33,-75.34C226.38,-65.13 258.27,-51 284.35,-39.44"/>
<polygon fill="black" stroke="black" points="285.65,-42.69 293.38,-35.44 282.82,-36.29 285.65,-42.69"/>
</g>
<!-- Save Game&#45;&gt;Start -->
<g id="edge12" class="edge">
<title>Save Game&#45;&gt;Start</title>
<path fill="none" stroke="black" d="M198.53,-34.13C233.83,-56.82 292.49,-103.22 292.49,-161 292.49,-235 292.49,-235 292.49,-235 292.49,-274.26 292.49,-319.62 292.49,-348.31"/>
<polygon fill="black" stroke="black" points="288.99,-348 292.49,-358 295.99,-348 288.99,-348"/>
</g>
<!-- Quit Without Saving&#45;&gt;Start -->
<g id="edge13" class="edge">
<title>Quit Without Saving&#45;&gt;Start</title>
<path fill="none" stroke="black" d="M330.49,-36.49C330.49,-63.29 330.49,-116.13 330.49,-161 330.49,-235 330.49,-235 330.49,-235 330.49,-276.05 315.49,-321.57 304.34,-349.74"/>
<polygon fill="black" stroke="black" points="301.13,-348.36 300.58,-358.94 307.6,-351.01 301.13,-348.36"/>
</g>
</g>
</svg>
